Coordinates
version=1
nRows=49
nColumns=12
inDegrees=yes

Units are S.I. units (second, meters, Newtons, ...)
Angles are in degrees

endheader
time	SC_y	SC_z	SC_x	AC_y	AC_z	AC_x	GH_y	GH_z	GH_yy	EL_x	PS_y
       0.0              -39.26          13.73          25.17          47.32           1.13          16.13         -47.13          49.59         -30.74          104.8          15.67
   0.02402              -39.26          13.73          25.17          47.33          1.128          16.13          -47.1          49.59         -30.74          104.8          15.68
   0.04804              -39.26          13.73          25.17          47.33          1.127          16.13         -47.07          49.59         -30.75          104.8           15.7
   0.07206              -39.26          13.73          25.18          47.33          1.125          16.13         -47.03           49.6         -30.76          104.8          15.71
   0.09608              -39.27          13.73          25.18          47.34          1.123          16.13          -47.0           49.6         -30.76          104.8          15.73
    0.1201              -39.27          13.73          25.18          47.34          1.122          16.13         -46.96           49.6         -30.77          104.8          15.75
    0.1441              -39.27          13.73          25.18          47.35           1.12          16.13         -46.92          49.61         -30.78          104.8          15.77
    0.1681              -39.27          13.73          25.18          47.35          1.118          16.13         -46.88          49.61         -30.79          104.8          15.79
    0.1922              -39.28          13.73          25.18          47.36          1.115          16.13         -46.84          49.62          -30.8          104.8          15.82
    0.2162              -39.28          13.73          25.18          47.36          1.113          16.13         -46.79          49.62         -30.81          104.8          15.84
    0.2402              -39.28          13.74          25.18          47.37           1.11          16.13         -46.74          49.63         -30.82          104.8          15.87
    0.2642              -39.28          13.74          25.19          47.37          1.108          16.13         -46.68          49.63         -30.83          104.8           15.9
    0.2882              -39.29          13.74          25.19          47.38          1.105          16.13         -46.62          49.64         -30.84          104.8          15.93
    0.3123              -39.29          13.74          25.19          47.39          1.101          16.13         -46.56          49.65         -30.86          104.8          15.96
    0.3363              -39.29          13.74          25.19          47.39          1.098          16.13         -46.49          49.65         -30.87          104.8           16.0
    0.3603               -39.3          13.74          25.19           47.4          1.094          16.13         -46.41          49.66         -30.89          104.8          16.04
    0.3843               -39.3          13.74           25.2          47.41           1.09          16.13         -46.33          49.67         -30.91          104.8          16.08
    0.4083              -39.31          13.74           25.2          47.42          1.086          16.13         -46.24          49.68         -30.93          104.8          16.13
    0.4324              -39.31          13.75           25.2          47.43          1.081          16.13         -46.14          49.69         -30.95          104.8          16.18
    0.4564              -39.32          13.75          25.21          47.44          1.075          16.13         -46.03           49.7         -30.97          104.8          16.23
    0.4804              -39.33          13.75          25.21          47.45          1.069          16.13         -45.92          49.71         -30.99          104.9          16.29
    0.5044              -39.33          13.75          25.21          47.47          1.063          16.13         -45.79          49.73         -31.02          104.9          16.36
    0.5285              -39.34          13.76          25.22          47.48          1.056          16.13         -45.64          49.74         -31.05          104.9          16.43
    0.5525              -39.35          13.76          25.22           47.5          1.048          16.13         -45.48          49.76         -31.09          104.9          16.52
    0.5765              -39.36          13.76          25.23          47.52          1.039          16.13         -45.31          49.78         -31.12          104.9          16.61
    0.6005              -39.37          13.77          25.24          47.54          1.029          16.13         -45.11           49.8         -31.17          104.9          16.71
    0.6245              -39.38          13.77          25.24          47.56          1.018          16.13         -44.89          49.82         -31.21          104.9          16.82
    0.6486               -39.4          13.77          25.25          47.59          1.006          16.13         -44.64          49.85         -31.27          104.9          16.95
    0.6726              -39.41          13.78          25.26          47.62         0.9919          16.13         -44.36          49.88         -31.33          104.9           17.1
    0.6966              -39.43          13.79          25.27          47.65         0.9761          16.13         -44.04          49.91         -31.39          104.9          17.26
    0.7206              -39.45          13.79          25.28          47.69          0.958          16.13         -43.68          49.95         -31.47          104.9          17.45
    0.7446              -39.47           13.8          25.29          47.74         0.9372          16.13         -43.26          49.99         -31.56          104.9          17.67
    0.7687               -39.5          13.81          25.31          47.79         0.9132          16.13         -42.78          50.04         -31.66          104.9          17.92
    0.7927              -39.53          13.82          25.32          47.85         0.8853          16.14         -42.22           50.1         -31.78          104.9          18.21
    0.8167              -39.57          13.83          25.35          47.92         0.8527          16.14         -41.56          50.17         -31.92          104.9          18.55
    0.8407              -39.61          13.84          25.37           48.0         0.8142          16.14         -40.79          50.25         -32.09          104.9          18.95
    0.8647              -39.66          13.86           25.4           48.1         0.7685          16.14         -39.87          50.35         -32.28          104.9          19.42
    0.8888              -39.72          13.88          25.43          48.21         0.7137          16.14         -38.77          50.46         -32.51          104.9          19.99
    0.9128              -39.79          13.91          25.47          48.36         0.6475          16.14         -37.44           50.6          -32.8          104.9          20.68
    0.9368              -39.88          13.94          25.52          48.53         0.5665          16.14         -35.81          50.77         -33.14          104.9          21.52
    0.9608               -40.0          13.97          25.59          48.74         0.4666          16.15          -33.8          50.98         -33.57          104.9          22.56
    0.9848              -40.13          14.02          25.66          49.01          0.342          16.15          -31.3          51.25          -34.1          104.9          23.86
     1.009              -40.31          14.08          25.76          49.35          0.185          16.15         -28.15          51.58         -34.77          104.9          25.49
     1.033              -40.53          14.15          25.88          49.77       -0.01453          16.16         -24.14           52.0         -35.63          105.0          27.57
     1.057              -40.81          14.24          26.04          50.32        -0.2699          16.16         -19.01          52.54         -36.72          105.0          30.22
     1.081              -41.18          14.37          26.25          51.02        -0.5977          16.17         -12.42          53.23         -38.12          105.0          33.63
     1.105              -41.64          14.52          26.51          51.92         -1.016          16.18         -4.013          54.11         -39.91          105.1          37.98
     1.129              -42.23          14.71          26.84          53.04         -1.543          16.19          6.563          55.22         -42.15          105.1          43.46
     1.153              -42.94          14.95          27.23          54.42         -2.184          16.21          19.45          56.57         -44.89          105.2          50.13
